<?xml version="1.0" encoding="UTF-8"?>
<svg xmlns="http://www.w3.org/2000/svg" version="1.1" viewBox="0 0 141.73 141.73">
  <defs>
    <style>
      .cls-1 {
        fill: #ff6621;
      }
    </style>
  </defs>
  <!-- Generator: Adobe Illustrator 28.6.0, SVG Export Plug-In . SVG Version: 1.2.0 Build 709)  -->
  <g>
    <g id="Layer_1">
      <g>
        <g>
          <path class="cls-1" d="M70.87,88.35c-3.91,0-7.09,3.18-7.09,7.09v26.46c0,3.91,3.18,7.09,7.09,7.09s7.09-3.18,7.09-7.09v-26.46c0-3.91-3.18-7.09-7.09-7.09Z"/>
          <path class="cls-1" d="M70.87,12.76c-3.91,0-7.09,3.18-7.09,7.09v26.46c0,3.91,3.18,7.09,7.09,7.09s7.09-3.18,7.09-7.09v-26.46c0-3.91-3.18-7.09-7.09-7.09Z"/>
          <path class="cls-1" d="M121.89,63.78h-26.46c-3.91,0-7.09,3.18-7.09,7.09s3.18,7.09,7.09,7.09h26.46c3.91,0,7.09-3.18,7.09-7.09s-3.18-7.09-7.09-7.09Z"/>
          <path class="cls-1" d="M53.39,70.87c0-3.91-3.18-7.09-7.09-7.09h-26.46c-3.91,0-7.09,3.18-7.09,7.09s3.18,7.09,7.09,7.09h26.46c3.91,0,7.09-3.18,7.09-7.09Z"/>
          <path class="cls-1" d="M93.25,83.23c-1.33-1.33-3.11-2.07-5.01-2.07s-3.68.73-5.01,2.07c-2.76,2.76-2.76,7.26,0,10.02l18.71,18.71c1.38,1.38,3.2,2.07,5.01,2.07s3.63-.69,5.01-2.07h0c1.33-1.33,2.07-3.11,2.07-5.01s-.74-3.68-2.07-5.01l-18.71-18.71Z"/>
          <path class="cls-1" d="M39.8,29.78c-2.76-2.76-7.26-2.76-10.02,0-1.33,1.33-2.07,3.11-2.07,5.01s.73,3.68,2.07,5.01l18.71,18.71c1.38,1.38,3.2,2.07,5.01,2.07s3.63-.69,5.01-2.07c1.33-1.33,2.07-3.11,2.07-5.01s-.73-3.68-2.07-5.01l-18.71-18.71Z"/>
          <path class="cls-1" d="M88.24,60.57c1.9,0,3.68-.73,5.01-2.07l18.71-18.71c1.33-1.33,2.07-3.11,2.07-5.01s-.74-3.68-2.07-5.01h0c-2.76-2.76-7.26-2.76-10.02,0l-18.71,18.71c-2.76,2.76-2.76,7.26,0,10.02,1.33,1.33,3.11,2.07,5.01,2.07Z"/>
          <path class="cls-1" d="M48.48,83.23l-18.71,18.71c-1.33,1.33-2.07,3.11-2.07,5.01s.73,3.68,2.07,5.01c1.38,1.38,3.2,2.07,5.01,2.07s3.63-.69,5.01-2.07l18.71-18.71c1.33-1.33,2.07-3.11,2.07-5.01s-.73-3.68-2.07-5.01c-2.76-2.76-7.26-2.76-10.02,0Z"/>
        </g>
        <circle cx="70.87" cy="70.87" r="11.34"/>
      </g>
    </g>
  </g>
</svg>